<?xml version="1.0" encoding="UTF-8"?>
<svg id="_レイヤー_2" data-name="レイヤー 2" xmlns="http://www.w3.org/2000/svg" viewBox="0 0 339 339">
  <defs>
    <style>
      .cls-1 {
        fill: #efefef;
      }

      .cls-2 {
        fill: #00a29a;
      }
    </style>
  </defs>
  <g id="_レイヤー_1-2" data-name="レイヤー 1">
    <g>
      <circle class="cls-2" cx="169.5" cy="169.5" r="169.5"/>
      <path class="cls-1" d="M201.55,108.7v-46.45c0-9.29,7.37-16.66,16.66-16.66s16.98,7.37,16.98,16.66v190.61c0,17.62-14.42,31.72-32.04,31.72h-57.34c-11.85,0-22.75-4.49-31.07-12.81l-12.81-12.81c-8.33-8.01-12.81-19.22-12.81-31.07v-62.47c0-11.85,4.49-22.75,12.81-31.07l12.81-12.81c8.33-8.33,19.22-12.81,31.07-12.81h55.74ZM122.74,225.31c0,4.49,1.6,8.65,4.81,11.85,2.88,2.88,6.09,6.09,8.97,8.97,3.2,3.2,7.37,4.81,11.85,4.81h53.18v-108.6h-53.18c-4.49,0-8.65,1.6-11.85,4.81l-8.97,8.97c-3.2,3.2-4.81,7.37-4.81,11.85v57.34Z"/>
    </g>
  </g>
</svg>